<svg width="500" height="500" viewBox="0 0 500 500" fill="none" xmlns="http://www.w3.org/2000/svg">
  <rect width="500" height="500" fill="#F3F4F6"/>
  <path d="M250 150C194.772 150 150 194.772 150 250C150 305.228 194.772 350 250 350C305.228 350 350 305.228 350 250C350 194.772 305.228 150 250 150ZM250 320C211.34 320 180 288.66 180 250C180 211.34 211.34 180 250 180C288.66 180 320 211.34 320 250C320 288.66 288.66 320 250 320Z" fill="#9CA3AF"/>
  <path d="M250 200C223.49 200 202 221.49 202 248C202 274.51 223.49 296 250 296C276.51 296 298 274.51 298 248C298 221.49 276.51 200 250 200ZM250 276C234.536 276 222 263.464 222 248C222 232.536 234.536 220 250 220C265.464 220 278 232.536 278 248C278 263.464 265.464 276 250 276Z" fill="#9CA3AF"/>
</svg>
